<svg width="29" height="15" viewBox="0 0 29 15" xmlns="http://www.w3.org/2000/svg">
<path d="M28.8083 7.03556L22.2176 0.444745C21.9808 0.168287 21.5647 0.136059 21.2883 0.37287C21.0118 0.609623 20.9796 1.0257 21.2164 1.30216C21.2385 1.32793 21.2625 1.352 21.2883 1.37403L26.752 6.8444H0.659059C0.295092 6.8444 0 7.13949 0 7.50352C0 7.86754 0.295092 8.16258 0.659059 8.16258H26.752L21.2883 13.6263C21.0118 13.8631 20.9796 14.2791 21.2164 14.5556C21.4532 14.8321 21.8692 14.8643 22.1457 14.6275C22.1715 14.6054 22.1955 14.5814 22.2176 14.5556L28.8084 7.96479C29.0639 7.70782 29.0639 7.29265 28.8083 7.03556Z"/>
</svg>
